# xmcd CD database file
#
# Track frame offsets:
#	182
#	15417
#	29740
#	36010
#	52062
#	60592
#	63707
#	71107
#	90257
#	103752
#	111382
#	114272
#	130437
#	153230
#	164685
#	172450
#	181810
#	188372
#	192777
#	218190
#	227430
#	238830
#	245015
#	262702
#	269472
#	275462
#	280690
#	285547
#	289457
#	292137
#	296067
#	317075
#	328540
#	332707
#	337305
#
# Disc length: 4662 seconds
#
# Revision: 4
# Processed by: cddbd v1.5.2PL0 Copyright (c) Steve Scherf et al.
# Submitted via: CDex 1.51
#
DISCID=2c123423
DTITLE=Igor Stravinsky - The Rite Of Spring (1913) ~ The Firebird (1910)
DYEAR=1994
DGENRE=Ballet
TTITLE0=(ROS) Part I-The Adoration of the Earth: Introduction  {Simon Rattle, National Youth Orchestra}
TTITLE1=(ROS) Part I-The Adoration of the Earth: Dance of the Adolescents
TTITLE2=(ROS) Part I-The Adoration of the Earth: Game of Abduction
TTITLE3=(ROS) Part I-The Adoration of the Earth: Spring Rounds
TTITLE4=(ROS) Part I-The Adoration of the Earth: Games of the Rival Cities
TTITLE5=(ROS) Part I-The Adoration of the Earth: Procession of the Wise Man
TTITLE6=(ROS) Part I-The Adoration of the Earth: Adoration of the Earth-Dance of the Earth
TTITLE7=(ROS) Part II-The Sacrifice: Introduction
TTITLE8=(ROS) Part II-The Sacrifice: Mysterious Rounds of the Adolescents
TTITLE9=(ROS) Part II-The Sacrifice: Glorification of the Chosen One
TTITLE10=(ROS) Part II-The Sacrifice: Evocation of the Ancestors
TTITLE11=(ROS) Part II-The Sacrifice: Ritual of the Ancestors
TTITLE12=(ROS) Part II-The Sacrifice: Sacrificial Dance of the Chosen One
TTITLE13=(F): Introduction
TTITLE14=(F) Scene I: Kashchei's Enchanted Garden
TTITLE15=(F) Scene I: Appearance of the Firebird pursued by Ivan Tsarevich
TTITLE16=(F) Scene I: Dance of the Firebird
TTITLE17=(F) Scene I: Ivan Tsarevich captures the Firebird
TTITLE18=(F) Scene I: Supplication of the Firebird
TTITLE19=(F) Scene I: Appearance of the Thirteen Enchanted Princesses
TTITLE20=(F) Scene I: Princesses' Game with the Golden Apples  (Scherzo)
TTITLE21=(F) Scene I: Sudden Appearance of Ivan Tsarevich
TTITLE22=(F) Scene I: The Princesses' Khorovod  (Round Dance)
TTITLE23=(F) Scene I: Daybreak
TTITLE24=(F) Scene I: Magic Carillon-Appearance of Kashchei's Guardian Monsters and Capture of Ivan Tsarevich
TTITLE25=(F) Scene I: Arrival of Kaschei the Immortal
TTITLE26=(F) Scene I: His Dialogue with Ivan Tsarevich
TTITLE27=(F) Scene I: Intercession of the Princesses
TTITLE28=(F) Scene I: Appearance of the Firebird
TTITLE29=(F) Scene I: Dance of Kashchei's Retinue under the Firebird's
TTITLE30=(F) Scene I: Infernal Dance of all Kashchei's Subjects
TTITLE31=(F) Scene I: The Firebird's Lullaby
TTITLE32=(F) Scene I: Kashchei's Awakening
TTITLE33=(F) Scene I: Kashchei's Death-Eclipse
TTITLE34=(F) Scene II: General Thanksgiving
EXTD=YEAR: 1994
EXTT0=
EXTT1=
EXTT2=
EXTT3=
EXTT4=
EXTT5=
EXTT6=
EXTT7=
EXTT8=
EXTT9=
EXTT10=
EXTT11=
EXTT12=
EXTT13=
EXTT14=
EXTT15=
EXTT16=
EXTT17=
EXTT18=
EXTT19=
EXTT20=
EXTT21=
EXTT22=
EXTT23=
EXTT24=
EXTT25=
EXTT26=
EXTT27=
EXTT28=
EXTT29=
EXTT30=
EXTT31=
EXTT32=
EXTT33=
EXTT34=
PLAYORDER=
